<?xml version="1.0" standalone="no"?>
<!DOCTYPE svg PUBLIC "-//W3C//DTD SVG 20010904//EN"
 "http://www.w3.org/TR/2001/REC-SVG-20010904/DTD/svg10.dtd">
<svg version="1.0" xmlns="http://www.w3.org/2000/svg"
 width="88.000000pt" height="88.000000pt" viewBox="0 0 88.000000 88.000000"
 preserveAspectRatio="xMidYMid meet">

<g transform="translate(0.000000,88.000000) scale(0.100000,-0.100000)"
fill="#000000" stroke="none">
<path d="M0 440 l0 -440 440 0 440 0 0 440 0 440 -440 0 -440 0 0 -440z m472
335 c15 1 25 -2 22 -7 -3 -4 1 -8 9 -8 8 0 17 -12 20 -27 3 -16 9 -36 12 -45
5 -13 2 -18 -9 -18 -18 0 -22 -15 -6 -25 6 -4 -2 -27 -19 -58 -25 -44 -34 -52
-60 -54 -23 -1 -31 3 -31 15 0 10 -11 30 -25 46 -16 18 -23 36 -19 48 3 10 1
18 -4 18 -16 0 -20 38 -6 58 7 11 11 22 8 25 -3 3 11 11 30 18 20 7 36 18 36
24 0 7 3 7 8 -1 4 -6 19 -10 34 -9z m-152 -260 c11 -13 10 -14 -4 -9 -9 3 -16
10 -16 15 0 13 6 11 20 -6z m145 -15 c3 -5 1 -10 -4 -10 -6 0 -11 5 -11 10 0
6 2 10 4 10 3 0 8 -4 11 -10z m-100 -120 c3 -5 1 -10 -4 -10 -6 0 -11 5 -11
10 0 6 2 10 4 10 3 0 8 -4 11 -10z m221 -12 c4 -7 3 -8 -4 -4 -7 4 -12 2 -12
-5 0 -7 -3 -10 -6 -6 -6 5 3 27 11 27 2 0 7 -5 11 -12z m-191 -28 c3 -6 -1 -7
-9 -4 -18 7 -21 14 -7 14 6 0 13 -4 16 -10z m-74 -17 c13 -16 12 -17 -3 -4
-10 7 -18 15 -18 17 0 8 8 3 21 -13z m196 -59 c-3 -3 -12 -4 -19 -1 -8 3 -5 6
6 6 11 1 17 -2 13 -5z m-72 -26 c11 0 32 3 47 7 23 6 29 3 39 -18 14 -30 3
-65 -34 -109 -17 -21 -32 -28 -65 -30 l-43 -3 -19 55 c-11 30 -19 62 -20 71 0
25 23 41 50 34 14 -4 34 -7 45 -7z"/>
<path d="M491 206 c-8 -10 -9 -16 -1 -21 5 -3 13 1 16 10 9 22 -1 29 -15 11z"/>
</g>
</svg>
